<?xml version="1.0" encoding="utf-8"?>
<!-- Generator: Adobe Illustrator 22.0.1, SVG Export Plug-In . SVG Version: 6.00 Build 0)  -->
<svg version="1.1" id="Layer_1" xmlns="http://www.w3.org/2000/svg" xmlns:xlink="http://www.w3.org/1999/xlink" x="0px" y="0px"
	 viewBox="0 0 220 220" style="enable-background:new 0 0 220 220;" xml:space="preserve">
<style type="text/css">
	.st0{clip-path:url(#SVGID_2_);fill:#FFFFFF;}
	.st1{enable-background:new    ;}
	.st2{fill:#FFFFFF;}
	.st3{fill:#231F20;}
	.st4{font-family:'ArialMT';}
	.st5{font-size:15.8458px;}
	.st6{font-size:15.8469px;}
	.st7{clip-path:url(#SVGID_4_);fill:#FFFFFF;}
	.st8{clip-path:url(#SVGID_6_);fill:none;stroke:#FFFFFF;stroke-miterlimit:10;}
</style>
<g>
	<g>
		<g>
			<g>
				<defs>
					<rect id="SVGID_1_" x="-33.6" y="-32.9" width="285.2" height="285.2"/>
				</defs>
				<clipPath id="SVGID_2_">
					<use xlink:href="#SVGID_1_"  style="overflow:visible;"/>
				</clipPath>
				<path class="st0" d="M109,13c53.3,0,96.7,43.4,96.7,96.7c0,53.3-43.4,96.7-96.7,96.7s-96.7-43.4-96.7-96.7
					C12.3,56.4,55.7,13,109,13 M109,9.1C53.4,9.1,8.3,54.1,8.3,109.7c0,55.6,45.1,100.7,100.7,100.7s100.7-45.1,100.7-100.7
					C209.7,54.1,164.6,9.1,109,9.1"/>
			</g>
		</g>
	</g>
	<g class="st1">
		<path class="st2" d="M22.4,84.5c-0.1,0-0.1-0.1-0.1-0.2l2-6.2c0-0.1,0.1-0.1,0.2-0.1l0.9,0.3c0.1,0,0.1,0.1,0.1,0.2l-1.6,4.9
			c0,0.1,0,0.1,0.1,0.1l3,1c0.1,0,0.1,0,0.1-0.1l1.4-4.1c0-0.1,0.1-0.1,0.2-0.1l0.9,0.3c0.1,0,0.1,0.1,0.1,0.2l-1.4,4.1
			c0,0.1,0,0.1,0.1,0.1l3.1,1c0.1,0,0.1,0,0.1-0.1l1.6-4.9c0-0.1,0.1-0.1,0.2-0.1l0.9,0.3c0.1,0,0.1,0.1,0.1,0.2l-2,6.1
			c0,0.1-0.1,0.1-0.2,0.1L22.4,84.5z"/>
	</g>
	<g class="st1">
		<path class="st2" d="M27.5,71.1c-0.1-0.1-0.1-0.1-0.1-0.2l0.4-0.9c0-0.1,0.1-0.1,0.2-0.1l11,1.2c0.1,0,0.1,0.1,0.1,0.2l-0.5,1
			c0,0.1-0.1,0.1-0.2,0.1L36.1,72L34.2,76l1.7,1.8C36,77.8,36,77.9,36,78l-0.5,1c0,0.1-0.1,0.1-0.2,0L27.5,71.1z M34.7,71.9
			l-5.1-0.6l0,0l3.7,3.7L34.7,71.9z"/>
	</g>
	<g class="st1">
		<path class="st2" d="M39.5,68.4c-0.1,0-0.2,0-0.2-0.1l-0.3-1c0-0.1,0-0.2,0.1-0.2c0.9-0.3,1.9-0.9,2.6-1.9c0.8-1.2,0.7-2.4-0.2-3
			c-0.8-0.5-1.6-0.4-2.7,0.9l-0.4,0.4c-1.4,1.6-2.8,1.9-4.2,1c-1.6-1.1-1.8-2.9-0.7-4.7c0.7-1.1,1.7-1.8,2.7-2.2
			c0.1,0,0.2,0,0.2,0.1l0.4,0.9c0,0.1,0,0.2-0.1,0.2c-0.9,0.4-1.6,0.9-2.1,1.7c-0.7,1.1-0.5,2.1,0.3,2.7c0.7,0.5,1.6,0.3,2.7-0.9
			l0.4-0.4c1.4-1.6,2.8-1.9,4.3-0.9c1.6,1.1,2,2.9,0.5,5.1C41.9,67.2,40.6,68.1,39.5,68.4z"/>
	</g>
	<g class="st1">
		<path class="st2" d="M48.4,58.2c-0.1,0.1-0.2,0.1-0.2,0l-7-6c0,0-0.1,0-0.1,0l-1.9,2.2c-0.1,0.1-0.2,0.1-0.2,0l-0.8-0.6
			c-0.1-0.1-0.1-0.2,0-0.2l4.9-5.7c0.1-0.1,0.2-0.1,0.2,0l0.8,0.6c0.1,0.1,0.1,0.2,0,0.2L42.1,51c0,0,0,0.1,0,0.1l7,6
			c0.1,0.1,0.1,0.2,0,0.2L48.4,58.2z"/>
	</g>
	<g class="st1">
		<path class="st2" d="M59,47.7c-0.1,0.1-0.1,0-0.2,0l-7-4.6l0,0l3.5,7.6c0,0.1,0,0.2,0,0.2l-0.7,0.6c-0.1,0.1-0.2,0.1-0.2,0
			l-8.8-6.2c-0.1,0-0.1-0.1,0-0.2l0.8-0.7c0.1-0.1,0.2-0.1,0.2,0l6.7,4.8l0,0l-3.5-7.5c0-0.1,0-0.2,0-0.2l0.6-0.5
			c0.1-0.1,0.2-0.1,0.2,0l6.9,4.6l0,0l-3.8-7.3c0-0.1,0-0.2,0.1-0.3l0.8-0.7c0.1-0.1,0.1,0,0.2,0l4.8,9.6c0,0.1,0,0.2,0,0.2L59,47.7
			z"/>
	</g>
	<g class="st1">
		<path class="st2" d="M62.9,41.9C62.4,41.5,62,41,61,39.5c-0.9-1.5-1.2-2.1-1.4-2.7c-0.4-1.7,0.3-3.1,1.8-4.1
			c1.5-1,3.1-0.9,4.4,0.2c0.5,0.4,0.9,0.9,1.8,2.4c0.9,1.5,1.2,2.1,1.4,2.7c0.4,1.7-0.3,3.1-1.8,4.1C65.8,43.1,64.2,43,62.9,41.9z
			 M67.7,38.5c-0.1-0.4-0.4-1.1-1.2-2.4c-0.8-1.3-1.3-1.9-1.6-2.1c-0.8-0.7-1.8-0.8-2.8-0.2c-1,0.6-1.4,1.5-1.1,2.6
			c0.1,0.4,0.4,1.1,1.2,2.4c0.8,1.3,1.3,1.9,1.6,2.1c0.8,0.7,1.8,0.8,2.8,0.2C67.6,40.4,68,39.5,67.7,38.5z"/>
	</g>
	<g class="st1">
		<path class="st2" d="M72.7,36.2c-0.4-0.5-0.8-1-1.5-2.7c-0.7-1.6-0.9-2.3-1-2.9c-0.2-1.7,0.7-3.1,2.3-3.8c1.7-0.7,3.2-0.5,4.4,0.8
			c0.4,0.5,0.8,1,1.5,2.7c0.7,1.6,0.9,2.2,1,2.9c0.2,1.7-0.7,3.1-2.4,3.8C75.4,37.8,73.9,37.5,72.7,36.2z M78,33.5
			c0-0.4-0.2-1.1-0.8-2.5c-0.6-1.4-1-2-1.3-2.3c-0.7-0.8-1.6-1-2.7-0.5c-1.1,0.5-1.6,1.3-1.4,2.4c0,0.4,0.2,1.1,0.8,2.5
			c0.6,1.4,1,2,1.3,2.3c0.7,0.8,1.6,1,2.7,0.5C77.6,35.4,78.1,34.5,78,33.5z"/>
	</g>
	<g class="st1">
		<path class="st2" d="M81,23.9c0-0.1,0-0.2,0.1-0.2l3.5-1c1.8-0.5,3.1-0.1,4,1.3c0.3,0.5,0.6,1,1.1,2.9c0.5,1.8,0.6,2.4,0.6,3
			c-0.1,1.6-1,2.7-2.8,3.2l-3.5,1c-0.1,0-0.2,0-0.2-0.1L81,23.9z M85,32.5l1.9-0.5c1.2-0.4,1.9-1,2-2.1c0-0.4,0-0.9-0.5-2.6
			c-0.5-1.6-0.7-2.1-0.9-2.4c-0.6-0.9-1.5-1.1-2.8-0.8l-1.9,0.5c-0.1,0-0.1,0.1-0.1,0.1l2.2,7.6C84.9,32.5,84.9,32.5,85,32.5z"/>
	</g>
	<text transform="matrix(0.9851 -0.1721 0.1721 0.9851 93.4717 31.6641)" class="st3 st4 st5"> </text>
	<g class="st1">
		<path class="st2" d="M99,20c0-0.1,0.1-0.2,0.1-0.2l3.6-0.3c1.8-0.1,3.1,0.6,3.7,2c0.2,0.6,0.4,1.1,0.5,3.1
			c0.1,1.9,0.1,2.5-0.1,3.1c-0.4,1.6-1.5,2.4-3.3,2.5l-3.6,0.3c-0.1,0-0.2-0.1-0.2-0.1L99,20z M101.2,29.2l2-0.1
			c1.3-0.1,2.1-0.6,2.3-1.6c0.1-0.4,0.2-0.9,0-2.6c-0.1-1.7-0.2-2.2-0.4-2.6c-0.4-1-1.3-1.4-2.6-1.3l-2,0.1c-0.1,0-0.1,0-0.1,0.1
			l0.6,7.9C101.1,29.2,101.1,29.2,101.2,29.2z"/>
	</g>
	<g class="st1">
		<path class="st2" d="M111.6,19.5c0-0.1,0.1-0.2,0.2-0.1l6.5,0.4c0.1,0,0.2,0.1,0.1,0.2l-0.1,1c0,0.1-0.1,0.2-0.2,0.1l-5.1-0.3
			c-0.1,0-0.1,0-0.1,0.1l-0.2,3.2c0,0.1,0,0.1,0.1,0.1l4.3,0.3c0.1,0,0.2,0.1,0.1,0.2l-0.1,1c0,0.1-0.1,0.2-0.2,0.1l-4.3-0.3
			c-0.1,0-0.1,0-0.1,0.1l-0.2,3.3c0,0.1,0,0.1,0.1,0.1l5.1,0.3c0.1,0,0.2,0.1,0.1,0.2l-0.1,1c0,0.1-0.1,0.2-0.2,0.1l-6.5-0.4
			c-0.1,0-0.2-0.1-0.1-0.2L111.6,19.5z"/>
	</g>
	<g class="st1">
		<path class="st2" d="M123.6,31.5c-0.1,0-0.1-0.1-0.2-0.2L122,20.4c0-0.1,0.1-0.2,0.1-0.2l1.1,0.2c0.1,0,0.2,0.1,0.2,0.2l1.1,8.7
			l0,0l4.2-7.7c0.1-0.1,0.1-0.1,0.2-0.1l1.1,0.2c0.1,0,0.1,0.1,0.1,0.2l-5.4,9.6c0,0.1-0.1,0.1-0.2,0.1L123.6,31.5z"/>
	</g>
	<g class="st1">
		<path class="st2" d="M134.3,23.1c0-0.1,0.1-0.1,0.2-0.1l6.2,2c0.1,0,0.1,0.1,0.1,0.2l-0.3,0.9c0,0.1-0.1,0.1-0.2,0.1l-4.9-1.6
			c-0.1,0-0.1,0-0.1,0.1l-1,3c0,0.1,0,0.1,0.1,0.1l4.1,1.4c0.1,0,0.1,0.1,0.1,0.2l-0.3,0.9c0,0.1-0.1,0.1-0.2,0.1l-4.1-1.4
			c-0.1,0-0.1,0-0.1,0.1l-1,3.1c0,0.1,0,0.1,0.1,0.1l4.9,1.6c0.1,0,0.1,0.1,0.1,0.2l-0.3,0.9c0,0.1-0.1,0.1-0.2,0.1l-6.1-2
			c-0.1,0-0.1-0.1-0.1-0.2L134.3,23.1z"/>
	</g>
	<g class="st1">
		<path class="st2" d="M145.1,27c0-0.1,0.1-0.1,0.2-0.1l1,0.5c0.1,0,0.1,0.1,0.1,0.2l-4,8.3c0,0.1,0,0.1,0,0.1l4.6,2.2
			c0.1,0,0.1,0.1,0.1,0.2l-0.4,0.9c0,0.1-0.1,0.1-0.2,0.1l-5.8-2.8c-0.1,0-0.1-0.1-0.1-0.2L145.1,27z"/>
	</g>
	<g class="st1">
		<path class="st2" d="M150,38.8c0.2-0.6,0.4-1.2,1.4-2.7c0.9-1.5,1.4-2,1.9-2.4c1.4-1.1,2.9-1.1,4.4-0.2c1.5,1,2.2,2.4,1.8,4.1
			c-0.2,0.6-0.4,1.2-1.4,2.7c-0.9,1.5-1.4,2-1.9,2.4c-1.4,1.1-2.9,1.1-4.4,0.2C150.3,41.9,149.6,40.5,150,38.8z M155.3,41.6
			c0.3-0.3,0.8-0.8,1.6-2.1c0.8-1.3,1.1-2,1.2-2.4c0.3-1-0.1-1.9-1.1-2.6c-1-0.6-2-0.6-2.8,0.1c-0.3,0.3-0.8,0.8-1.6,2.1
			c-0.8,1.3-1.1,2-1.2,2.4c-0.3,1,0.1,1.9,1.1,2.6C153.5,42.4,154.4,42.3,155.3,41.6z"/>
	</g>
	<g class="st1">
		<path class="st2" d="M158.1,47c-0.1-0.1-0.1-0.1,0-0.2l6.8-8c0.1-0.1,0.1-0.1,0.2,0l2.9,2.5c1.6,1.3,1.8,3.2,0.5,4.7
			c-1.3,1.5-3.1,1.6-4.7,0.2l-1.9-1.6c0,0-0.1,0-0.1,0l-2.6,3.1c-0.1,0.1-0.2,0.1-0.2,0L158.1,47z M167.5,45.1
			c0.8-0.9,0.6-2-0.4-2.8l-1.8-1.6c0,0-0.1,0-0.1,0l-2.3,2.8c0,0,0,0.1,0,0.1l1.8,1.6C165.7,46,166.7,46,167.5,45.1z"/>
	</g>
	<g class="st1">
		<path class="st2" d="M173.9,47c0.1-0.1,0.2-0.1,0.2,0l0.7,0.8c0.1,0.1,0.1,0.2,0,0.3l-3.4,7.2l0,0l7.5-2.4c0.1,0,0.2,0,0.3,0.1
			l0.7,0.8c0.1,0.1,0.1,0.2,0,0.2l-7.9,6.9c-0.1,0.1-0.2,0.1-0.2,0l-0.7-0.8c-0.1-0.1-0.1-0.2,0-0.2l5.6-4.9l0,0l-6.2,1.9
			c-0.1,0-0.2,0-0.3-0.1l-0.4-0.5c-0.1-0.1-0.1-0.2-0.1-0.4l2.7-5.9l0,0l-5.6,4.9c-0.1,0.1-0.2,0.1-0.2,0l-0.7-0.8
			c-0.1-0.1-0.1-0.2,0-0.2L173.9,47z"/>
	</g>
	<g class="st1">
		<path class="st2" d="M183.2,58.4c0.1-0.1,0.2,0,0.2,0l3.5,5.5c0.1,0.1,0,0.2,0,0.2l-0.8,0.5c-0.1,0.1-0.2,0-0.2-0.1l-2.8-4.3
			c0-0.1-0.1-0.1-0.1,0l-2.7,1.7c-0.1,0-0.1,0.1,0,0.1l2.4,3.7c0.1,0.1,0,0.2,0,0.2l-0.8,0.5c-0.1,0.1-0.2,0-0.2,0l-2.4-3.7
			c0-0.1-0.1-0.1-0.1,0l-2.8,1.8c-0.1,0-0.1,0.1,0,0.1L179,69c0.1,0.1,0,0.2,0,0.2l-0.8,0.5c-0.1,0.1-0.2,0-0.2,0l-3.5-5.5
			c-0.1-0.1,0-0.2,0-0.2L183.2,58.4z"/>
	</g>
	<g class="st1">
		<path class="st2" d="M189.2,68.3c0.1,0,0.2,0,0.2,0.1l0.4,0.9c0.1,0.1,0.1,0.2,0,0.3l-5.3,7.8l0,0.1l7.3-3.4c0.1,0,0.2,0,0.2,0.1
			l0.4,0.9c0,0.1,0,0.2-0.1,0.2l-9.5,4.4c-0.1,0-0.2,0-0.2-0.1l-0.4-0.9c0-0.1-0.1-0.2,0-0.3l5.2-7.8l0,0l-7.3,3.4
			c-0.1,0-0.2,0-0.2-0.1l-0.4-0.9c0-0.1,0-0.2,0.1-0.2L189.2,68.3z"/>
	</g>
	<g class="st1">
		<path class="st2" d="M184.9,85.7c0-0.1,0-0.2,0.1-0.2l8.8-2.7c0.1,0,0.1-0.1,0.1-0.1l-0.9-2.8c0-0.1,0-0.2,0.1-0.2l1-0.3
			c0.1,0,0.2,0,0.2,0.1l2.2,7.2c0,0.1,0,0.2-0.1,0.2l-1,0.3c-0.1,0-0.2,0-0.2-0.1l-0.9-2.8c0-0.1-0.1-0.1-0.1-0.1l-8.8,2.7
			c-0.1,0-0.2,0-0.2-0.1L184.9,85.7z"/>
	</g>
	<g class="st1">
		<path class="st2" d="M58.1,171.8c0.1-0.1,0.1-0.1,0.2,0l0.9,0.6c0.1,0.1,0.1,0.1,0,0.2l-5.4,7.4c0,0.1,0,0.1,0,0.1l4.1,3
			c0.1,0.1,0.1,0.1,0,0.2l-0.6,0.8c-0.1,0.1-0.1,0.1-0.2,0l-5.2-3.8c-0.1-0.1-0.1-0.1,0-0.2L58.1,171.8z"/>
	</g>
	<g class="st1">
		<path class="st2" d="M66.4,177.5c0-0.1,0.1-0.1,0.2-0.1l0.9,0.6c0.1,0,0.1,0.1,0.1,0.2l-5.3,9c0,0.1-0.1,0.1-0.2,0.1l-0.9-0.6
			c-0.1,0-0.1-0.1-0.1-0.2L66.4,177.5z"/>
	</g>
	<g class="st1">
		<path class="st2" d="M68.7,184.8c0.8-1.6,1.1-2.1,1.5-2.6c1.2-1.3,2.7-1.5,4.3-0.8c1.4,0.7,2.2,1.9,2.2,3.4c0,0.1-0.1,0.1-0.1,0.2
			l-1.1,0c-0.1,0-0.2-0.1-0.2-0.2c0-0.9-0.4-1.8-1.4-2.2c-1.1-0.5-1.9-0.3-2.7,0.5c-0.3,0.3-0.6,0.8-1.3,2.3c-0.7,1.5-0.9,2-0.9,2.5
			c-0.1,1.1,0.3,1.9,1.3,2.4c1,0.5,1.9,0.2,2.6-0.4c0.1-0.1,0.2-0.1,0.2,0l0.7,0.8c0.1,0.1,0,0.2,0,0.2c-1.1,1-2.6,1.2-4,0.5
			c-1.6-0.7-2.4-2.1-2.2-3.8C67.8,187,68,186.5,68.7,184.8z"/>
	</g>
	<g class="st1">
		<path class="st2" d="M77.6,192.9c0-0.1,0.1-0.1,0.2-0.1l1.1,0.4c0.1,0,0.1,0.1,0.1,0.2l-0.5,1.3c0,0.1-0.1,0.1-0.2,0.1l-1.1-0.4
			c-0.1,0-0.1-0.1-0.1-0.2L77.6,192.9z"/>
	</g>
	<text transform="matrix(0.9606 0.2781 -0.2781 0.9606 81.3809 195.8014)" class="st3 st4 st6"> </text>
	<g class="st1">
		<path class="st2" d="M90.7,187.4c0-0.1,0.1-0.1,0.2-0.1l3.8,0.7c2.1,0.4,3,1.7,2.7,3.4c-0.2,1.2-1,1.9-1.8,2l0,0
			c0.7,0.3,1.4,1.3,1.2,2.7c-0.4,2-1.8,2.8-4,2.4l-3.7-0.7c-0.1,0-0.1-0.1-0.1-0.2L90.7,187.4z M90.5,196.8l2.5,0.5
			c1.3,0.2,2.1-0.3,2.3-1.4c0.2-1-0.4-1.9-1.6-2.1l-2.5-0.5c-0.1,0-0.1,0-0.1,0.1l-0.6,3.3C90.4,196.8,90.5,196.8,90.5,196.8z
			 M93.8,192.5c1.2,0.2,2-0.3,2.2-1.3c0.2-1-0.4-1.8-1.5-2l-2.4-0.4c-0.1,0-0.1,0-0.1,0.1l-0.6,3.1c0,0.1,0,0.1,0.1,0.1L93.8,192.5z
			"/>
	</g>
	<g class="st1">
		<path class="st2" d="M100.6,195.9l0.1-0.9c0-0.1,0.1-0.2,0.2-0.1l4.2,0.3c0.1,0,0.2,0.1,0.1,0.2l-0.1,0.9c0,0.1-0.1,0.2-0.2,0.1
			l-4.2-0.3C100.7,196,100.6,196,100.6,195.9z"/>
	</g>
	<g class="st1">
		<path class="st2" d="M113.3,195.2L113.3,195.2c-0.2,0.1-0.7,0.2-1.1,0.3c-1.7,0.1-3.1-1.1-3.2-3.1c-0.1-2.1,1.3-3.4,3.2-3.5
			c1.9-0.1,3.3,1.1,3.4,3.2c0,0.9-0.2,1.7-0.6,2.5l-2.5,5.2c0,0.1-0.1,0.1-0.2,0.1l-1.1,0c-0.1,0-0.1-0.1-0.1-0.2L113.3,195.2z
			 M114.2,192.2c0-1.2-0.8-2-2-2c-1.2,0-1.9,0.9-1.9,2.1c0,1.2,0.9,2,2,1.9C113.5,194.2,114.3,193.4,114.2,192.2z"/>
	</g>
	<g class="st1">
		<path class="st2" d="M120.7,197l0.9-0.4c0.1,0,0.2,0,0.2,0.1c0.3,0.7,1,1.2,1.9,1c0.7-0.1,1.3-0.6,1.4-1.3c0.1-0.3,0-0.7-0.1-1.4
			c-0.1-0.7-0.2-1-0.4-1.3c-0.4-0.7-1-0.9-1.7-0.8c-0.8,0.1-1.3,0.7-1.4,1.2c0,0.1-0.1,0.2-0.2,0.2l-0.9,0.1c-0.1,0-0.2,0-0.2-0.1
			l-0.9-5.7c0-0.1,0-0.2,0.1-0.2l5.3-0.9c0.1,0,0.2,0,0.2,0.1l0.1,0.9c0,0.1,0,0.2-0.1,0.2l-4.2,0.7c-0.1,0-0.1,0-0.1,0.1l0.5,3l0,0
			c0.2-0.4,0.8-0.8,1.6-1c1.3-0.2,2.3,0.2,2.9,1.3c0.2,0.4,0.4,0.9,0.5,1.8c0.1,0.8,0.1,1.3,0.1,1.8c-0.2,1.3-1.2,2.1-2.5,2.3
			c-1.6,0.3-2.9-0.5-3.3-1.7C120.6,197.1,120.7,197,120.7,197z"/>
	</g>
	<g class="st1">
		<path class="st2" d="M134.5,191.6L134.5,191.6c-0.2,0.2-0.6,0.4-1,0.5c-1.6,0.5-3.3-0.3-3.8-2.2c-0.6-2,0.5-3.6,2.2-4.1
			c1.8-0.5,3.5,0.3,4.1,2.2c0.2,0.8,0.2,1.7,0,2.6l-1.2,5.6c0,0.1-0.1,0.1-0.2,0.2l-1,0.3c-0.1,0-0.2,0-0.1-0.1L134.5,191.6z
			 M134.7,188.4c-0.3-1.2-1.3-1.7-2.4-1.4c-1.1,0.3-1.6,1.3-1.3,2.5c0.3,1.2,1.3,1.7,2.4,1.4C134.5,190.5,135,189.5,134.7,188.4z"/>
	</g>
	<g class="st1">
		<path class="st2" d="M144.7,187.8L144.7,187.8c-0.2,0.2-0.5,0.5-0.9,0.6c-1.6,0.7-3.3,0.1-4.1-1.7c-0.8-1.9,0-3.6,1.7-4.4
			c1.7-0.7,3.5-0.2,4.3,1.7c0.3,0.8,0.4,1.7,0.3,2.5l-0.5,5.8c0,0.1,0,0.1-0.1,0.2l-1,0.4c-0.1,0-0.2,0-0.1-0.1L144.7,187.8z
			 M144.4,184.6c-0.5-1.1-1.5-1.6-2.6-1.1c-1.1,0.5-1.5,1.5-1,2.6c0.5,1.1,1.5,1.6,2.6,1.1C144.5,186.8,144.9,185.7,144.4,184.6z"/>
	</g>
	<g class="st1">
		<path class="st2" d="M151.8,187.3l-0.4-0.8c0-0.1,0-0.1-0.1-0.2l-0.8-8.3c0-0.1,0-0.2,0.1-0.2l0.9-0.5c0.1-0.1,0.2,0,0.2,0.1
			l0.8,8.2l0,0l2.5-1.4c0.1,0,0.1-0.1,0-0.1l-1.4-2.4c0-0.1,0-0.2,0.1-0.2l0.9-0.5c0.1,0,0.2,0,0.2,0.1l1.4,2.4c0,0.1,0.1,0.1,0.1,0
			l0.8-0.5c0.1,0,0.2,0,0.2,0.1l0.5,0.8c0,0.1,0,0.2-0.1,0.2l-0.8,0.5c-0.1,0-0.1,0.1,0,0.1l0.8,1.4c0,0.1,0,0.2-0.1,0.2l-0.9,0.5
			c-0.1,0-0.2,0-0.2-0.1l-0.8-1.4c0-0.1-0.1-0.1-0.1,0l-3.6,2.1C151.9,187.4,151.9,187.4,151.8,187.3z"/>
	</g>
	<g class="st1">
		<path class="st2" d="M160.4,177.6L160.4,177.6c-0.8,0.1-1.8-0.2-2.4-1.1c-1-1.3-0.9-3.1,0.6-4.2c1.5-1.2,3.3-0.8,4.2,0.5
			c0.7,0.9,0.7,1.9,0.4,2.6l0,0c1-0.2,2.1,0.2,2.8,1.2c1.1,1.5,0.8,3.3-0.7,4.5c-1.6,1.2-3.4,1-4.6-0.5
			C160.1,179.6,160,178.5,160.4,177.6z M161.8,173.6c-0.6-0.8-1.6-0.9-2.4-0.3c-0.8,0.6-0.9,1.6-0.3,2.4c0.6,0.8,1.6,1,2.4,0.3
			C162.3,175.4,162.4,174.3,161.8,173.6z M164.6,180.1c0.9-0.7,1.1-1.9,0.4-2.8c-0.7-0.9-1.8-1.1-2.8-0.4s-1.1,1.9-0.4,2.8
			C162.6,180.7,163.7,180.8,164.6,180.1z"/>
	</g>
	<g>
		<g>
			<g>
				<defs>
					<rect id="SVGID_3_" x="-33.6" y="-32.9" width="285.2" height="285.2"/>
				</defs>
				<clipPath id="SVGID_4_">
					<use xlink:href="#SVGID_3_"  style="overflow:visible;"/>
				</clipPath>
				<polygon class="st7" points="143.3,152.9 112.2,99 135.6,58.5 129.2,58.5 96.6,114.9 51.4,114.9 54.6,120.5 118.2,120.5 
					140.1,158.4 				"/>
			</g>
		</g>
		<g>
			<g>
				<defs>
					<rect id="SVGID_5_" x="-33.6" y="-32.9" width="285.2" height="285.2"/>
				</defs>
				<clipPath id="SVGID_6_">
					<use xlink:href="#SVGID_5_"  style="overflow:visible;"/>
				</clipPath>
				<circle class="st8" cx="109" cy="109.7" r="104.2"/>
			</g>
		</g>
	</g>
</g>
</svg>
