<?xml version="1.0" encoding="UTF-8" standalone="no"?>
<svg width="151px" height="211px" viewBox="0 0 151 211" version="1.1" xmlns="http://www.w3.org/2000/svg" xmlns:xlink="http://www.w3.org/1999/xlink" xmlns:sketch="http://www.bohemiancoding.com/sketch/ns">
    <title>evb</title>
    <description>Created with Sketch (http://www.bohemiancoding.com/sketch)</description>
    <defs></defs>
    <g id="Page-1" stroke="none" stroke-width="1" fill="none" fill-rule="evenodd" sketch:type="MSPage">
        <g id="EVB_logo" sketch:type="MSLayerGroup" transform="translate(1.000000, 0.000000)">
            <path d="M75.044,14.967 C66.412,21.827 60.826,32.387 60.826,44.296 C60.826,54.901 64.186,64.934 71.298,71.789 C71.425,71.91 71.723,72.197 71.723,73.307 L71.723,139.387 C72.383,139.407 73.046,139.417 73.711,139.417 C75.052,139.417 76.385,139.373 77.707,139.3 L77.707,73.307 C77.707,72.209 77.975,71.967 78.108,71.846 C85.6,64.99 89.239,55.195 89.239,44.296 C89.239,32.387 83.691,21.827 75.044,14.967" id="Fill-1" fill="#FFFFFF" sketch:type="MSShapeGroup"></path>
            <path d="M109.216,93.32 C102.87,92.391 96.17,94.19 91.108,98.953 C86.044,103.684 83.769,110.228 84.311,116.635 C90.629,117.583 97.336,115.75 102.395,111.02 C107.453,106.314 109.746,99.73 109.216,93.32" id="Fill-2" fill="#FFFFFF" sketch:type="MSShapeGroup"></path>
            <path d="M55.019,82.859 C49.132,79.224 42.185,78.747 36.147,80.899 C36.904,87.291 40.397,93.285 46.318,96.921 C52.181,100.573 59.117,101.061 65.181,98.866 C64.426,92.491 60.905,86.5 55.019,82.859" id="Fill-3" fill="#FFFFFF" sketch:type="MSShapeGroup"></path>
            <path d="M102.395,111.02 C97.336,115.75 90.629,117.583 84.311,116.635 C83.769,110.228 86.044,103.684 91.108,98.953 C96.17,94.19 102.87,92.391 109.216,93.32 C109.746,99.73 107.453,106.314 102.395,111.02 L102.395,111.02 Z M65.181,98.866 C59.117,101.061 52.181,100.573 46.318,96.921 C40.397,93.285 36.904,87.291 36.147,80.899 C42.185,78.747 49.132,79.224 55.019,82.859 C60.905,86.5 64.426,92.491 65.181,98.866 L65.181,98.866 Z M143.308,69.83 C143.301,31.388 112.144,0.223 73.711,0.223 C72.054,0.223 70.408,0.284 68.781,0.397 C68.639,0.407 68.497,0.415 68.354,0.426 C68.039,0.45 67.727,0.48 67.414,0.509 C67.14,0.533 66.865,0.552 66.594,0.581 C66.53,0.587 66.468,0.596 66.402,0.604 C31.402,4.257 4.121,33.856 4.113,69.83 C4.121,107.599 34.209,138.335 71.723,139.387 L71.723,73.307 C71.723,72.197 71.425,71.91 71.298,71.789 C64.186,64.934 60.826,54.901 60.826,44.296 C60.826,32.387 66.412,21.827 75.044,14.967 C83.691,21.827 89.239,32.387 89.239,44.296 C89.239,55.195 85.6,64.99 78.108,71.846 C77.975,71.967 77.707,72.209 77.707,73.307 L77.707,139.3 C114.281,137.229 143.301,106.923 143.308,69.83 L143.308,69.83 Z" id="Fill-4" fill="#6BB644" sketch:type="MSShapeGroup"></path>
            <path d="M73.068,196.27 L61.044,163.879 L49.875,163.879 L68.47,210.2 L77.404,210.2 L95.998,163.879 L85.091,163.879 L73.068,196.27" id="Fill-5" fill="#393C3A" sketch:type="MSShapeGroup"></path>
            <path d="M9.692,191.211 L29.366,191.211 L29.366,182.211 L9.692,182.211 L9.692,172.881 L34.332,172.881 L34.332,163.879 L-0.359,163.879 L-0.359,209.871 L34.661,209.871 L34.661,200.868 L9.692,200.868 L9.692,191.211" id="Fill-6" fill="#393C3A" sketch:type="MSShapeGroup"></path>
            <path d="M139.727,196.01 C139.727,199.422 137.035,200.999 132.568,200.999 L120.542,200.999 L120.542,192.139 L120.54,192.139 L120.54,180.032 L120.542,180.032 L120.542,172.749 L130.529,172.749 C134.801,172.749 137.166,174.458 137.166,177.479 L137.166,177.61 C137.166,181.027 134.341,182.473 129.872,182.473 L125.81,182.473 L125.81,190.882 L132.238,190.882 C137.428,190.882 139.727,192.789 139.727,195.874 L139.727,196.01 L139.727,196.01 Z M141.173,185.822 C144.46,183.986 147.218,181.093 147.218,175.903 L147.218,175.771 C147.218,172.618 146.169,170.054 144.066,167.952 C141.436,165.323 137.295,163.879 132.042,163.879 L110.689,163.879 L110.689,209.871 L132.568,209.871 C142.949,209.871 149.78,205.665 149.78,197.255 L149.78,197.124 C149.78,190.95 146.494,187.86 141.173,185.822 L141.173,185.822 Z" id="Fill-7" fill="#393C3A" sketch:type="MSShapeGroup"></path>
        </g>
    </g>
</svg>